<svg width="89" height="17" viewBox="0 0 89 17" fill="none" xmlns="http://www.w3.org/2000/svg">
<path d="M10.5 8.5C10.5 9.60457 9.60457 10.5 8.5 10.5C7.39543 10.5 6.5 9.60457 6.5 8.5M10.5 8.5C10.5 7.39544 9.60457 6.5 8.5 6.5C7.39543 6.5 6.5 7.39544 6.5 8.5M10.5 8.5L14.0996 8.49731M6.5 8.5L4.5 8.5M13.7834 2.49288C12.6264 1.47522 11.2 0.813376 9.67585 0.586891C8.15168 0.360406 6.59453 0.57892 5.19157 1.21617C3.7886 1.85342 2.59953 2.88228 1.76726 4.1791C0.934998 5.47591 0.494962 6.98549 0.500044 8.52639C0.505125 10.0673 0.955109 11.5739 1.79591 12.8652C2.63671 14.1565 3.83255 15.1775 5.23968 15.8055C6.64682 16.4335 8.20538 16.6417 9.72802 16.4052C11.2507 16.1687 12.6726 15.4974 13.8229 14.4722L12.226 12.6805C11.4208 13.3982 10.4255 13.8681 9.35961 14.0336C8.29376 14.1992 7.20277 14.0534 6.21778 13.6139C5.23278 13.1743 4.3957 12.4596 3.80714 11.5557C3.21858 10.6518 2.90359 9.5971 2.90003 8.51847C2.89647 7.43984 3.2045 6.38314 3.78708 5.47537C4.36967 4.5676 5.20202 3.84739 6.1841 3.40132C7.16617 2.95525 8.25618 2.80229 9.3231 2.96083C10.39 3.11936 11.3884 3.58266 12.1984 4.29501L13.7834 2.49288ZM16.1754 10.7558C16.6038 9.29813 16.6083 7.74859 16.1882 6.28847L13.8818 6.95193C14.1758 7.97402 14.1727 9.05869 13.8728 10.0791L16.1754 10.7558Z" fill="#B68D42" stroke="#806000" stroke-linecap="round"/>
<path d="M27.28 5.996C26.968 5.66 26.664 5.436 26.368 5.324C26.08 5.212 25.788 5.156 25.492 5.156C25.052 5.156 24.652 5.236 24.292 5.396C23.94 5.548 23.636 5.764 23.38 6.044C23.124 6.316 22.924 6.636 22.78 7.004C22.644 7.372 22.576 7.768 22.576 8.192C22.576 8.648 22.644 9.068 22.78 9.452C22.924 9.836 23.124 10.168 23.38 10.448C23.636 10.728 23.94 10.948 24.292 11.108C24.652 11.268 25.052 11.348 25.492 11.348C25.836 11.348 26.168 11.268 26.488 11.108C26.816 10.94 27.12 10.676 27.4 10.316L28.648 11.204C28.264 11.732 27.796 12.116 27.244 12.356C26.692 12.596 26.104 12.716 25.48 12.716C24.824 12.716 24.22 12.612 23.668 12.404C23.124 12.188 22.652 11.888 22.252 11.504C21.86 11.112 21.552 10.644 21.328 10.1C21.104 9.556 20.992 8.952 20.992 8.288C20.992 7.608 21.104 6.992 21.328 6.44C21.552 5.88 21.86 5.404 22.252 5.012C22.652 4.62 23.124 4.32 23.668 4.112C24.22 3.896 24.824 3.788 25.48 3.788C26.056 3.788 26.588 3.892 27.076 4.1C27.572 4.3 28.032 4.644 28.456 5.132L27.28 5.996ZM33.1308 11.708H33.0948C32.8868 12.036 32.6228 12.276 32.3028 12.428C31.9828 12.572 31.6308 12.644 31.2468 12.644C30.9828 12.644 30.7228 12.608 30.4668 12.536C30.2188 12.464 29.9948 12.356 29.7948 12.212C29.6028 12.068 29.4468 11.888 29.3268 11.672C29.2068 11.456 29.1468 11.204 29.1468 10.916C29.1468 10.604 29.2028 10.34 29.3148 10.124C29.4268 9.9 29.5748 9.716 29.7588 9.572C29.9508 9.42 30.1708 9.3 30.4188 9.212C30.6668 9.124 30.9228 9.06 31.1868 9.02C31.4588 8.972 31.7308 8.944 32.0028 8.936C32.2748 8.92 32.5308 8.912 32.7708 8.912H33.1308V8.756C33.1308 8.396 33.0068 8.128 32.7588 7.952C32.5108 7.768 32.1948 7.676 31.8108 7.676C31.5068 7.676 31.2228 7.732 30.9588 7.844C30.6948 7.948 30.4668 8.092 30.2748 8.276L29.5188 7.52C29.8388 7.192 30.2108 6.956 30.6348 6.812C31.0668 6.668 31.5108 6.596 31.9668 6.596C32.3748 6.596 32.7188 6.644 32.9988 6.74C33.2788 6.828 33.5108 6.944 33.6948 7.088C33.8788 7.232 34.0188 7.4 34.1148 7.592C34.2188 7.776 34.2908 7.964 34.3308 8.156C34.3788 8.348 34.4068 8.536 34.4148 8.72C34.4228 8.896 34.4268 9.052 34.4268 9.188V12.5H33.1308V11.708ZM33.0468 9.92H32.7468C32.5468 9.92 32.3228 9.928 32.0748 9.944C31.8268 9.96 31.5908 10 31.3668 10.064C31.1508 10.12 30.9668 10.208 30.8148 10.328C30.6628 10.44 30.5868 10.6 30.5868 10.808C30.5868 10.944 30.6148 11.06 30.6708 11.156C30.7348 11.244 30.8148 11.32 30.9108 11.384C31.0068 11.448 31.1148 11.496 31.2348 11.528C31.3548 11.552 31.4748 11.564 31.5948 11.564C32.0908 11.564 32.4548 11.448 32.6868 11.216C32.9268 10.976 33.0468 10.652 33.0468 10.244V9.92ZM36.0002 3.428H37.4402V12.5H36.0002V3.428ZM39.1291 6.74H40.5691V12.5H39.1291V6.74ZM38.9251 4.784C38.9251 4.552 39.0091 4.352 39.1771 4.184C39.3531 4.008 39.5731 3.92 39.8371 3.92C40.1011 3.92 40.3211 4.004 40.4971 4.172C40.6811 4.332 40.7731 4.536 40.7731 4.784C40.7731 5.032 40.6811 5.24 40.4971 5.408C40.3211 5.568 40.1011 5.648 39.8371 5.648C39.5731 5.648 39.3531 5.564 39.1771 5.396C39.0091 5.22 38.9251 5.016 38.9251 4.784ZM42.2223 3.428H43.6623V7.472H43.6983C43.7703 7.376 43.8623 7.28 43.9743 7.184C44.0863 7.08 44.2223 6.984 44.3823 6.896C44.5423 6.808 44.7263 6.736 44.9342 6.68C45.1423 6.624 45.3823 6.596 45.6543 6.596C46.0623 6.596 46.4383 6.676 46.7823 6.836C47.1263 6.988 47.4183 7.2 47.6583 7.472C47.9063 7.744 48.0983 8.064 48.2343 8.432C48.3703 8.8 48.4383 9.196 48.4383 9.62C48.4383 10.044 48.3743 10.44 48.2463 10.808C48.1183 11.176 47.9303 11.496 47.6823 11.768C47.4343 12.04 47.1343 12.256 46.7823 12.416C46.4303 12.568 46.0343 12.644 45.5943 12.644C45.1863 12.644 44.8063 12.564 44.4543 12.404C44.1023 12.244 43.8223 11.988 43.6143 11.636H43.5903V12.5H42.2223V3.428ZM46.9983 9.62C46.9983 9.396 46.9583 9.18 46.8783 8.972C46.8063 8.764 46.6943 8.58 46.5423 8.42C46.3983 8.26 46.2223 8.132 46.0143 8.036C45.8063 7.94 45.5703 7.892 45.3063 7.892C45.0423 7.892 44.8063 7.94 44.5983 8.036C44.3903 8.132 44.2103 8.26 44.0583 8.42C43.9143 8.58 43.8023 8.764 43.7223 8.972C43.6503 9.18 43.6143 9.396 43.6143 9.62C43.6143 9.844 43.6503 10.06 43.7223 10.268C43.8023 10.476 43.9143 10.66 44.0583 10.82C44.2103 10.98 44.3903 11.108 44.5983 11.204C44.8063 11.3 45.0423 11.348 45.3063 11.348C45.5703 11.348 45.8063 11.3 46.0143 11.204C46.2223 11.108 46.3983 10.98 46.5423 10.82C46.6943 10.66 46.8063 10.476 46.8783 10.268C46.9583 10.06 46.9983 9.844 46.9983 9.62ZM49.7808 6.74H51.2208V7.652H51.2448C51.4048 7.316 51.6328 7.056 51.9288 6.872C52.2248 6.688 52.5648 6.596 52.9488 6.596C53.0368 6.596 53.1208 6.604 53.2008 6.62C53.2888 6.636 53.3768 6.656 53.4648 6.68V8.072C53.3448 8.04 53.2248 8.016 53.1048 8C52.9928 7.976 52.8808 7.964 52.7688 7.964C52.4328 7.964 52.1608 8.028 51.9528 8.156C51.7528 8.276 51.5968 8.416 51.4848 8.576C51.3808 8.736 51.3088 8.896 51.2688 9.056C51.2368 9.216 51.2208 9.336 51.2208 9.416V12.5H49.7808V6.74ZM58.0449 11.708H58.0089C57.8009 12.036 57.5369 12.276 57.2169 12.428C56.8969 12.572 56.5449 12.644 56.1609 12.644C55.8969 12.644 55.6369 12.608 55.3809 12.536C55.1329 12.464 54.9089 12.356 54.7089 12.212C54.5169 12.068 54.3609 11.888 54.2409 11.672C54.1209 11.456 54.0609 11.204 54.0609 10.916C54.0609 10.604 54.1169 10.34 54.2289 10.124C54.3409 9.9 54.4889 9.716 54.6729 9.572C54.8649 9.42 55.0849 9.3 55.3329 9.212C55.5809 9.124 55.8369 9.06 56.1009 9.02C56.3729 8.972 56.6449 8.944 56.9169 8.936C57.1889 8.92 57.4449 8.912 57.6849 8.912H58.0449V8.756C58.0449 8.396 57.9209 8.128 57.6729 7.952C57.4249 7.768 57.1089 7.676 56.7249 7.676C56.4209 7.676 56.1369 7.732 55.8729 7.844C55.6089 7.948 55.3809 8.092 55.1889 8.276L54.4329 7.52C54.7529 7.192 55.1249 6.956 55.5489 6.812C55.9809 6.668 56.4249 6.596 56.8809 6.596C57.2889 6.596 57.6329 6.644 57.9129 6.74C58.1929 6.828 58.4249 6.944 58.6089 7.088C58.7929 7.232 58.9329 7.4 59.0289 7.592C59.1329 7.776 59.2049 7.964 59.2449 8.156C59.2929 8.348 59.3209 8.536 59.3289 8.72C59.3369 8.896 59.3409 9.052 59.3409 9.188V12.5H58.0449V11.708ZM57.9609 9.92H57.6609C57.4609 9.92 57.2369 9.928 56.9889 9.944C56.7409 9.96 56.5049 10 56.2809 10.064C56.0649 10.12 55.8809 10.208 55.7289 10.328C55.5769 10.44 55.5009 10.6 55.5009 10.808C55.5009 10.944 55.5289 11.06 55.5849 11.156C55.6489 11.244 55.7289 11.32 55.8249 11.384C55.9209 11.448 56.0289 11.496 56.1489 11.528C56.2689 11.552 56.3889 11.564 56.5089 11.564C57.0049 11.564 57.3689 11.448 57.6009 11.216C57.8409 10.976 57.9609 10.652 57.9609 10.244V9.92ZM60.2182 7.964V6.74H61.4062V5.072H62.8462V6.74H64.4302V7.964H62.8462V10.484C62.8462 10.772 62.8982 11 63.0022 11.168C63.1142 11.336 63.3302 11.42 63.6502 11.42C63.7782 11.42 63.9182 11.408 64.0702 11.384C64.2222 11.352 64.3422 11.304 64.4302 11.24V12.452C64.2782 12.524 64.0902 12.572 63.8662 12.596C63.6502 12.628 63.4582 12.644 63.2902 12.644C62.9062 12.644 62.5902 12.6 62.3422 12.512C62.1022 12.432 61.9102 12.308 61.7662 12.14C61.6302 11.964 61.5342 11.748 61.4782 11.492C61.4302 11.236 61.4062 10.94 61.4062 10.604V7.964H60.2182ZM66.7063 10.124C66.7543 10.556 66.9223 10.892 67.2103 11.132C67.4983 11.372 67.8463 11.492 68.2543 11.492C68.6143 11.492 68.9143 11.42 69.1543 11.276C69.4023 11.124 69.6183 10.936 69.8023 10.712L70.8343 11.492C70.4983 11.908 70.1223 12.204 69.7063 12.38C69.2903 12.556 68.8543 12.644 68.3983 12.644C67.9663 12.644 67.5583 12.572 67.1743 12.428C66.7903 12.284 66.4583 12.08 66.1783 11.816C65.8983 11.552 65.6743 11.236 65.5063 10.868C65.3463 10.492 65.2663 10.076 65.2663 9.62C65.2663 9.164 65.3463 8.752 65.5063 8.384C65.6743 8.008 65.8983 7.688 66.1783 7.424C66.4583 7.16 66.7903 6.956 67.1743 6.812C67.5583 6.668 67.9663 6.596 68.3983 6.596C68.7983 6.596 69.1623 6.668 69.4903 6.812C69.8263 6.948 70.1103 7.148 70.3423 7.412C70.5823 7.676 70.7663 8.004 70.8943 8.396C71.0303 8.78 71.0983 9.224 71.0983 9.728V10.124H66.7063ZM69.6583 9.044C69.6503 8.62 69.5183 8.288 69.2623 8.048C69.0063 7.8 68.6503 7.676 68.1943 7.676C67.7623 7.676 67.4183 7.8 67.1623 8.048C66.9143 8.296 66.7623 8.628 66.7063 9.044H69.6583ZM72.5769 4.004H75.9249C76.4849 4.004 77.0249 4.092 77.5449 4.268C78.0649 4.436 78.5249 4.696 78.9249 5.048C79.3249 5.4 79.6449 5.844 79.8849 6.38C80.1249 6.908 80.2449 7.532 80.2449 8.252C80.2449 8.98 80.1049 9.612 79.8249 10.148C79.5529 10.676 79.1969 11.116 78.7569 11.468C78.3249 11.812 77.8409 12.072 77.3049 12.248C76.7769 12.416 76.2569 12.5 75.7449 12.5H72.5769V4.004ZM75.2169 11.132C75.6889 11.132 76.1329 11.08 76.5489 10.976C76.9729 10.864 77.3409 10.696 77.6529 10.472C77.9649 10.24 78.2089 9.944 78.3849 9.584C78.5689 9.216 78.6609 8.772 78.6609 8.252C78.6609 7.74 78.5809 7.3 78.4209 6.932C78.2609 6.564 78.0369 6.268 77.7489 6.044C77.4689 5.812 77.1329 5.644 76.7409 5.54C76.3569 5.428 75.9329 5.372 75.4689 5.372H74.0889V11.132H75.2169ZM85.8464 5.828C85.6864 5.596 85.4704 5.428 85.1984 5.324C84.9344 5.212 84.6544 5.156 84.3584 5.156C84.1824 5.156 84.0104 5.176 83.8424 5.216C83.6824 5.256 83.5344 5.32 83.3984 5.408C83.2704 5.496 83.1664 5.612 83.0864 5.756C83.0064 5.892 82.9664 6.056 82.9664 6.248C82.9664 6.536 83.0664 6.756 83.2664 6.908C83.4664 7.06 83.7144 7.192 84.0104 7.304C84.3064 7.416 84.6304 7.524 84.9824 7.628C85.3344 7.732 85.6584 7.876 85.9544 8.06C86.2504 8.244 86.4984 8.488 86.6984 8.792C86.8984 9.096 86.9984 9.5 86.9984 10.004C86.9984 10.46 86.9144 10.86 86.7464 11.204C86.5784 11.54 86.3504 11.82 86.0624 12.044C85.7824 12.268 85.4544 12.436 85.0784 12.548C84.7024 12.66 84.3064 12.716 83.8904 12.716C83.3624 12.716 82.8544 12.628 82.3664 12.452C81.8784 12.276 81.4584 11.98 81.1064 11.564L82.2464 10.46C82.4304 10.74 82.6704 10.96 82.9664 11.12C83.2704 11.272 83.5904 11.348 83.9264 11.348C84.1024 11.348 84.2784 11.324 84.4544 11.276C84.6304 11.228 84.7904 11.156 84.9344 11.06C85.0784 10.964 85.1944 10.844 85.2824 10.7C85.3704 10.548 85.4144 10.376 85.4144 10.184C85.4144 9.872 85.3144 9.632 85.1144 9.464C84.9144 9.296 84.6664 9.156 84.3704 9.044C84.0744 8.924 83.7504 8.812 83.3984 8.708C83.0464 8.604 82.7224 8.464 82.4264 8.288C82.1304 8.104 81.8824 7.864 81.6824 7.568C81.4824 7.264 81.3824 6.86 81.3824 6.356C81.3824 5.916 81.4704 5.536 81.6464 5.216C81.8304 4.896 82.0664 4.632 82.3544 4.424C82.6504 4.208 82.9864 4.048 83.3624 3.944C83.7384 3.84 84.1224 3.788 84.5144 3.788C84.9624 3.788 85.3944 3.856 85.8104 3.992C86.2344 4.128 86.6144 4.352 86.9504 4.664L85.8464 5.828Z" fill="#B68D42"/>
</svg>
