<svg width="17" height="17" viewBox="0 0 17 17" fill="none" xmlns="http://www.w3.org/2000/svg">
  <style>
    path { fill: #3D2B00; stroke: #3D2B00; }
    @media (prefers-color-scheme: dark) {
      path { fill: #B68D42; stroke: #806000; }
    }
  </style>
  <path d="M10.5 8.5C10.5 9.60457 9.60457 10.5 8.5 10.5C7.39543 10.5 6.5 9.60457 6.5 8.5M10.5 8.5C10.5 7.39544 9.60457 6.5 8.5 6.5C7.39543 6.5 6.5 7.39544 6.5 8.5M10.5 8.5L14.0996 8.49731M6.5 8.5L4.5 8.5M13.7834 2.49288C12.6264 1.47522 11.2 0.813376 9.67585 0.586891C8.15168 0.360406 6.59453 0.57892 5.19157 1.21617C3.7886 1.85342 2.59953 2.88228 1.76726 4.1791C0.934998 5.47591 0.494962 6.98549 0.500044 8.52639C0.505125 10.0673 0.955109 11.5739 1.79591 12.8652C2.63671 14.1565 3.83255 15.1775 5.23968 15.8055C6.64682 16.4335 8.20538 16.6417 9.72802 16.4052C11.2507 16.1687 12.6726 15.4974 13.8229 14.4722L12.226 12.6805C11.4208 13.3982 10.4255 13.8681 9.35961 14.0336C8.29376 14.1992 7.20277 14.0534 6.21778 13.6139C5.23278 13.1743 4.3957 12.4596 3.80714 11.5557C3.21858 10.6518 2.90359 9.5971 2.90003 8.51847C2.89647 7.43984 3.2045 6.38314 3.78708 5.47537C4.36967 4.5676 5.20202 3.84739 6.1841 3.40132C7.16617 2.95525 8.25618 2.80229 9.3231 2.96083C10.39 3.11936 11.3884 3.58266 12.1984 4.29501L13.7834 2.49288ZM16.1754 10.7558C16.6038 9.29813 16.6083 7.74859 16.1882 6.28847L13.8818 6.95193C14.1758 7.97402 14.1727 9.05869 13.8728 10.0791L16.1754 10.7558Z" stroke-linecap="round"/>
</svg>
